<svg width="168" height="168" viewBox="0 0 168 168" fill="none" xmlns="http://www.w3.org/2000/svg">
<rect width="168" height="168" rx="16" fill="white"/>
<path d="M57.3333 57.333H46.6667C43.8377 57.333 41.1246 58.4568 39.1242 60.4572C37.1238 62.4576 36 65.1707 36 67.9997V110.666H46.6667V89.333H57.3333V110.666H68V67.9997C68 65.1707 66.8762 62.4576 64.8758 60.4572C62.8754 58.4568 60.1623 57.333 57.3333 57.333ZM57.3333 78.6663H46.6667V67.9997H57.3333M94.6667 57.333H73.3333V110.666H84V89.333H94.6667C97.4956 89.333 100.209 88.2092 102.209 86.2088C104.21 84.2084 105.333 81.4953 105.333 78.6663V67.9997C105.333 65.1707 104.21 62.4576 102.209 60.4572C100.209 58.4568 97.4956 57.333 94.6667 57.333ZM94.6667 78.6663H84V67.9997H94.6667M126.667 67.9997V99.9997H132V110.666H110.667V99.9997H116V67.9997H110.667V57.333H132V67.9997H126.667Z" fill="black"/>
</svg>
