<svg xmlns="http://www.w3.org/2000/svg" width="198" height="191" fill="none" viewBox="0 0 198 191"><g filter="url(#filter0_d_4_4)"><path stroke="#000" stroke-linecap="round" stroke-linejoin="round" stroke-width="8" d="M73.9484 20.5814C79.3524 15.1072 85.7272 11.0027 92.646 8.54248C99.5649 6.08229 106.868 5.32318 114.067 6.31596C121.266 7.30874 128.195 10.0305 134.389 14.2991C140.584 18.5677 145.901 24.2847 149.986 31.0674C158.211 30.8952 166.277 33.6499 173.045 38.9431C179.814 44.2363 184.943 51.8009 187.711 60.5699C190.478 69.3389 190.743 78.87 188.47 87.8189C186.196 96.7679 181.497 104.683 175.037 110.448C177.7 118.873 177.956 128.032 175.768 136.63C173.581 145.228 169.061 152.831 162.847 158.362C156.634 163.894 149.041 167.075 141.143 167.455C133.246 167.835 125.442 165.396 118.836 160.482C113.852 166.603 107.696 171.351 100.84 174.362C93.9839 177.373 86.6098 178.567 79.2828 177.853C71.9559 177.139 64.8707 174.536 58.5703 170.242C52.27 165.949 46.9218 160.08 42.9357 153.085C35.1418 151.973 27.8306 148.205 21.9718 142.282C16.1129 136.359 11.9831 128.56 10.13 119.92C8.27699 111.279 8.78821 102.205 11.5959 93.9007C14.4036 85.5965 19.3752 78.4545 25.8513 73.4217C23.547 65.8957 23.1874 57.7819 24.8146 50.0327C26.4418 42.2835 29.9883 35.2205 35.0378 29.6728C40.0873 24.125 46.4302 20.3229 53.322 18.7125C60.2138 17.1022 67.3684 17.7505 73.9461 20.5814M72.1836 18.8694C77.9014 13.207 84.6262 8.99926 91.9038 6.53038C99.1813 4.06151 106.842 3.38895 114.369 4.55813C121.896 5.72731 129.113 8.71101 135.534 13.3077C141.955 17.9044 147.43 24.0071 151.589 31.2037C159.756 31.6224 167.613 34.8737 174.093 40.5169C180.573 46.16 185.363 53.9221 187.814 62.7508C190.265 71.5794 190.258 81.0476 187.794 89.8717C185.331 98.6958 180.529 106.449 174.041 112.08C176.433 120.352 176.504 129.26 174.243 137.579C171.983 145.899 167.502 153.222 161.416 158.543C155.331 163.865 147.939 166.923 140.256 167.298C132.573 167.673 124.976 165.346 118.509 160.637C113.219 166.049 107.016 170.194 100.275 172.824C93.5337 175.454 86.3922 176.515 79.2796 175.942C72.167 175.369 65.2301 173.175 58.8856 169.491C52.5412 165.807 46.92 160.71 42.36 154.505C34.5646 153.517 27.2191 149.868 21.2988 144.044C15.3786 138.219 11.1636 130.494 9.21366 121.894C7.26369 113.294 7.67095 104.226 10.3813 95.8947C13.0918 87.5629 17.9771 80.3614 24.3887 75.2464C21.827 67.63 21.2824 59.3337 22.8215 51.3725C24.3606 43.4113 27.9167 36.1306 33.0546 30.4212C38.1925 24.7119 44.6893 20.8216 51.7501 19.2263C58.811 17.6311 66.1295 18.4001 72.8102 21.4392L72.1836 18.8694Z"/><path fill="#000" d="M95.736 138.728C77.176 138.728 65.272 124.904 65.272 101.608C65.272 76.008 78.136 42.024 106.68 42.024C127.416 42.024 130.424 59.24 127.288 68.648C125.624 73.448 121.72 76.52 117.432 75.432C113.144 74.344 110.968 70.824 112.248 66.664C114.104 60.712 110.392 57.704 105.72 57.704C90.04 57.704 82.552 84.776 82.552 100.52C82.552 114.152 87.8 122.856 96.824 122.856C103.736 122.856 110.008 117.736 113.72 108.392C110.84 108.712 107.832 108.84 104.44 108.84C99 108.84 95.544 106.152 95.544 101.48C95.544 97.704 97.464 93.736 102.648 93.736C112.056 93.8 117.496 93.288 124.28 91.688C128.696 90.6 132.536 94.056 132.536 98.024C132.536 100.264 131.832 102.312 130.36 103.848C130.808 105.704 130.616 107.88 129.976 109.992C123.576 129.832 110.904 138.728 95.736 138.728Z"/></g><defs><filter id="filter0_d_4_4" width="198" height="190.054" x="0" y="0" color-interpolation-filters="sRGB" filterUnits="userSpaceOnUse"><feFlood flood-opacity="0" result="BackgroundImageFix"/><feColorMatrix in="SourceAlpha" result="hardAlpha" type="matrix" values="0 0 0 0 0 0 0 0 0 0 0 0 0 0 0 0 0 0 127 0"/><feOffset dy="4"/><feGaussianBlur stdDeviation="2"/><feComposite in2="hardAlpha" operator="out"/><feColorMatrix type="matrix" values="0 0 0 0 0 0 0 0 0 0 0 0 0 0 0 0 0 0 0.25 0"/><feBlend in2="BackgroundImageFix" mode="normal" result="effect1_dropShadow_4_4"/><feBlend in="SourceGraphic" in2="effect1_dropShadow_4_4" mode="normal" result="shape"/></filter></defs></svg>