<svg xmlns="http://www.w3.org/2000/svg" width="753" height="183" fill="none" viewBox="0 0 753 183"><path fill="#000" d="M233.288 138.6C216.776 138.6 206.088 125.608 206.088 103.144C206.088 78.248 218.76 42.024 245.896 42.024C263.944 42.024 267.976 58.28 265.16 68.648C264.072 72.616 261 76.072 257.608 75.304C254.024 74.472 252.744 71.656 253.768 67.944C256.008 59.688 252.552 53.224 245.32 53.224C227.528 53.224 218.312 84.2 218.312 101.608C218.312 117.096 223.944 127.208 233.992 127.208C242.12 127.208 250.12 121.32 255.56 107.112C249.864 107.88 244.488 108.136 238.408 108.008C234.952 107.944 232.456 105.96 232.456 102.632C232.456 99.752 234.056 96.936 237.448 97C246.728 97.192 254.024 96.68 262.792 94.952C265.8 94.312 268.552 96.744 268.552 99.752C268.552 101.48 268.04 102.888 267.08 103.976C267.464 105.768 267.016 107.944 266.376 109.864C259.336 130.344 246.856 138.6 233.288 138.6ZM313.687 138.472C298.135 138.472 286.935 127.272 286.935 109.672C286.935 85.416 303.767 69.16 321.879 69.16C326.743 69.16 331.991 70.568 335.639 73.32C338.455 75.56 339.415 78.696 337.815 81.32C342.743 85.864 345.175 92.968 345.175 101.48C345.175 121.96 332.503 138.472 313.687 138.472ZM298.263 108.392C298.263 118.888 303.959 128.168 314.327 128.168C325.783 128.168 334.167 114.728 334.167 102.184C334.167 96.04 332.119 90.664 328.087 87.272C325.015 84.328 324.183 82.344 325.335 80.232L325.655 79.72C324.823 79.528 323.863 79.4 322.839 79.4C308.311 79.4 298.263 94.44 298.263 108.392ZM393.062 138.472C377.51 138.472 366.31 127.272 366.31 109.672C366.31 85.416 383.142 69.16 401.254 69.16C406.118 69.16 411.366 70.568 415.014 73.32C417.83 75.56 418.79 78.696 417.19 81.32C422.118 85.864 424.55 92.968 424.55 101.48C424.55 121.96 411.878 138.472 393.062 138.472ZM377.638 108.392C377.638 118.888 383.334 128.168 393.702 128.168C405.158 128.168 413.542 114.728 413.542 102.184C413.542 96.04 411.494 90.664 407.462 87.272C404.39 84.328 403.558 82.344 404.71 80.232L405.03 79.72C404.198 79.528 403.238 79.4 402.214 79.4C387.686 79.4 377.638 94.44 377.638 108.392ZM471.733 138.472C464.501 138.472 457.589 136.36 454.325 132.264C452.917 141.608 451.381 150.248 450.165 156.456C449.333 160.808 447.349 164.84 443.509 164.264C439.733 163.752 438.645 159.976 439.349 155.688C442.549 137.512 447.221 108.2 448.693 86.696C446.453 84.904 445.365 82.216 445.365 79.016C445.365 72.936 449.333 69.736 453.429 69.736C457.461 69.736 460.341 72.616 460.341 79.912C460.341 83.752 459.829 89.96 459.061 97.32H460.533C467.765 81.192 479.349 71.272 490.485 71.272C499.253 71.272 508.277 77.48 508.277 94.184C508.277 118.76 491.829 138.472 471.733 138.472ZM458.229 119.4H458.741C463.285 119.4 464.885 122.6 464.949 126.824C466.997 127.656 469.301 128.296 472.181 128.296C486.773 128.296 497.141 111.08 497.141 95.336C497.141 87.912 494.773 81.576 488.309 81.576C479.029 81.576 465.973 97.192 458.229 119.4ZM551.108 138.472C543.876 138.472 536.964 136.36 533.7 132.264C532.292 141.608 530.756 150.248 529.54 156.456C528.708 160.808 526.724 164.84 522.884 164.264C519.108 163.752 518.02 159.976 518.724 155.688C521.924 137.512 526.596 108.2 528.068 86.696C525.828 84.904 524.74 82.216 524.74 79.016C524.74 72.936 528.708 69.736 532.804 69.736C536.836 69.736 539.716 72.616 539.716 79.912C539.716 83.752 539.204 89.96 538.436 97.32H539.908C547.14 81.192 558.724 71.272 569.86 71.272C578.628 71.272 587.652 77.48 587.652 94.184C587.652 118.76 571.204 138.472 551.108 138.472ZM537.604 119.4H538.116C542.66 119.4 544.26 122.6 544.324 126.824C546.372 127.656 548.676 128.296 551.556 128.296C566.148 128.296 576.516 111.08 576.516 95.336C576.516 87.912 574.148 81.576 567.684 81.576C558.404 81.576 545.348 97.192 537.604 119.4ZM632.339 138.6C616.979 138.6 606.291 128.744 605.203 113.384H605.139C601.107 114.024 598.611 112.232 598.419 109.16C598.163 106.216 599.891 103.976 603.795 103.4C604.371 103.336 605.011 103.208 605.715 103.08C608.531 85.352 620.883 69.736 640.467 69.736C654.355 69.736 662.675 77.8 662.675 90.28C662.675 98.6 659.539 101.992 650.835 104.424C644.243 106.344 628.307 109.48 616.595 111.528C617.363 121.64 622.355 128.36 632.851 128.36C639.891 128.36 646.163 126.056 651.283 122.152C653.907 120.232 655.955 119.144 658.579 121.576C661.075 123.816 660.755 126.76 658.323 129C653.075 133.864 643.539 138.6 632.339 138.6ZM617.299 101.224C627.603 99.496 639.827 97.256 645.907 95.72C651.155 94.44 652.307 91.944 652.307 89.192C652.307 84.008 648.979 79.912 640.787 79.912C628.307 79.912 619.859 89.704 617.299 101.224ZM693.41 139.048C688.994 137.96 687.586 133.288 689.122 128.104C693.154 114.408 698.21 92.392 698.274 82.152L696.866 80.616C694.178 81.96 690.53 83.688 687.586 84.328C684.386 84.968 681.186 85.096 680.098 81.192C679.01 77.416 681.378 74.92 685.154 73.384C689.698 71.4 695.714 69.672 700.066 69.672C705.954 69.672 708.834 74.28 708.834 79.72C708.834 87.144 706.21 97.832 702.178 109.096L703.714 109.48C713.122 88.168 725.73 69.736 737.122 69.736C741.346 69.736 743.778 72.488 744.866 76.328C746.338 82.088 746.658 92.328 746.658 98.088C746.658 106.216 745.186 109.352 742.05 109.928C738.082 110.76 735.778 108.072 734.754 103.272C733.602 97.512 733.73 88.808 735.138 82.152L733.41 81.32C723.682 90.792 710.178 111.528 703.138 131.304C701.218 136.68 697.762 140.136 693.41 139.048Z"/><path stroke="#000" stroke-linecap="round" stroke-linejoin="round" stroke-width="8" d="M69.9484 20.5814C75.3524 15.1072 81.7272 11.0027 88.646 8.54248C95.5649 6.08229 102.868 5.32318 110.067 6.31596C117.266 7.30874 124.195 10.0305 130.389 14.2991C136.584 18.5677 141.901 24.2847 145.986 31.0674C154.211 30.8952 162.277 33.6499 169.045 38.9431C175.814 44.2363 180.943 51.8009 183.711 60.5699C186.478 69.3389 186.743 78.87 184.47 87.8189C182.196 96.7679 177.497 104.683 171.037 110.448C173.7 118.873 173.956 128.032 171.768 136.63C169.581 145.228 165.061 152.831 158.847 158.362C152.634 163.894 145.041 167.075 137.143 167.455C129.246 167.835 121.442 165.396 114.836 160.482C109.852 166.603 103.696 171.351 96.8399 174.362C89.9839 177.373 82.6098 178.567 75.2828 177.853C67.9559 177.139 60.8707 174.536 54.5703 170.242C48.27 165.949 42.9218 160.08 38.9357 153.085C31.1418 151.973 23.8306 148.205 17.9718 142.282C12.1129 136.359 7.9831 128.56 6.13005 119.92C4.27699 111.279 4.78821 102.205 7.59591 93.9007C10.4036 85.5965 15.3752 78.4545 21.8513 73.4217C19.547 65.8957 19.1874 57.7819 20.8146 50.0327C22.4418 42.2835 25.9883 35.2205 31.0378 29.6728C36.0873 24.125 42.4302 20.3229 49.322 18.7125C56.2138 17.1022 63.3684 17.7505 69.9461 20.5814M68.1836 18.8694C73.9014 13.207 80.6262 8.99926 87.9038 6.53038C95.1813 4.06151 102.842 3.38895 110.369 4.55813C117.896 5.72731 125.113 8.71101 131.534 13.3077C137.955 17.9044 143.43 24.0071 147.589 31.2037C155.756 31.6224 163.613 34.8737 170.093 40.5169C176.573 46.16 181.363 53.9221 183.814 62.7508C186.265 71.5794 186.258 81.0476 183.794 89.8717C181.331 98.6958 176.529 106.449 170.041 112.08C172.433 120.352 172.504 129.26 170.243 137.579C167.983 145.899 163.502 153.222 157.416 158.543C151.331 163.865 143.939 166.923 136.256 167.298C128.573 167.673 120.976 165.346 114.509 160.637C109.219 166.049 103.016 170.194 96.2751 172.824C89.5337 175.454 82.3922 176.515 75.2796 175.942C68.167 175.369 61.2301 173.175 54.8856 169.491C48.5412 165.807 42.92 160.71 38.36 154.505C30.5646 153.517 23.2191 149.868 17.2988 144.044C11.3786 138.219 7.16362 130.494 5.21366 121.894C3.26369 113.294 3.67095 104.226 6.38135 95.8947C9.09175 87.5629 13.9771 80.3614 20.3887 75.2464C17.827 67.63 17.2824 59.3337 18.8215 51.3725C20.3606 43.4113 23.9167 36.1306 29.0546 30.4212C34.1925 24.7119 40.6893 20.8216 47.7501 19.2263C54.811 17.6311 62.1295 18.4001 68.8102 21.4392L68.1836 18.8694Z"/><path fill="#000" d="M91.736 138.728C73.176 138.728 61.272 124.904 61.272 101.608C61.272 76.008 74.136 42.024 102.68 42.024C123.416 42.024 126.424 59.24 123.288 68.648C121.624 73.448 117.72 76.52 113.432 75.432C109.144 74.344 106.968 70.824 108.248 66.664C110.104 60.712 106.392 57.704 101.72 57.704C86.04 57.704 78.552 84.776 78.552 100.52C78.552 114.152 83.8 122.856 92.824 122.856C99.736 122.856 106.008 117.736 109.72 108.392C106.84 108.712 103.832 108.84 100.44 108.84C95 108.84 91.544 106.152 91.544 101.48C91.544 97.704 93.464 93.736 98.648 93.736C108.056 93.8 113.496 93.288 120.28 91.688C124.696 90.6 128.536 94.056 128.536 98.024C128.536 100.264 127.832 102.312 126.36 103.848C126.808 105.704 126.616 107.88 125.976 109.992C119.576 129.832 106.904 138.728 91.736 138.728Z"/></svg>