<svg width="1535" height="69" viewBox="0 0 1535 69" fill="none" xmlns="http://www.w3.org/2000/svg">
<mask id="mask0_102_2" style="mask-type:luminance" maskUnits="userSpaceOnUse" x="0" y="0" width="1535" height="69">
<path d="M1534.57 0H0V68.1699H1534.57V0Z" fill="white"/>
</mask>
<g mask="url(#mask0_102_2)">
<path d="M1534.57 0H0V95.9099H1534.57V0Z" fill="#06101E"/>
<path d="M6.39001 0.0100098V95.9099" stroke="black" stroke-width="0.4" stroke-miterlimit="10"/>
<path d="M0 95.9099V0.0100098" stroke="black" stroke-width="0.4" stroke-miterlimit="10"/>
<path d="M19.1801 0.0100098V95.9099" stroke="black" stroke-width="0.4" stroke-miterlimit="10"/>
<path d="M12.78 95.9099V0.0100098" stroke="black" stroke-width="0.4" stroke-miterlimit="10"/>
<path d="M31.97 0.0100098V95.9099" stroke="black" stroke-width="0.4" stroke-miterlimit="10"/>
<path d="M25.5701 95.9099V0.0100098" stroke="black" stroke-width="0.4" stroke-miterlimit="10"/>
<path d="M44.75 0.0100098V95.9099" stroke="black" stroke-width="0.4" stroke-miterlimit="10"/>
<path d="M38.36 95.9099V0.0100098" stroke="black" stroke-width="0.4" stroke-miterlimit="10"/>
<path d="M57.54 0.0100098V95.9099" stroke="black" stroke-width="0.4" stroke-miterlimit="10"/>
<path d="M51.15 95.9099V0.0100098" stroke="black" stroke-width="0.4" stroke-miterlimit="10"/>
<path d="M70.33 0.0100098V95.9099" stroke="black" stroke-width="0.4" stroke-miterlimit="10"/>
<path d="M63.9399 95.9099V0.0100098" stroke="black" stroke-width="0.4" stroke-miterlimit="10"/>
<path d="M83.12 0.0100098V95.9099" stroke="black" stroke-width="0.4" stroke-miterlimit="10"/>
<path d="M76.72 95.9099V0.0100098" stroke="black" stroke-width="0.4" stroke-miterlimit="10"/>
<path d="M95.91 0.0100098V95.9099" stroke="black" stroke-width="0.4" stroke-miterlimit="10"/>
<path d="M89.51 95.9099V0.0100098" stroke="black" stroke-width="0.4" stroke-miterlimit="10"/>
<path d="M108.69 0.0100098V95.9099" stroke="black" stroke-width="0.4" stroke-miterlimit="10"/>
<path d="M102.3 95.9099V0.0100098" stroke="black" stroke-width="0.4" stroke-miterlimit="10"/>
<path d="M121.48 0.0100098V95.9099" stroke="black" stroke-width="0.4" stroke-miterlimit="10"/>
<path d="M115.09 95.9099V0.0100098" stroke="black" stroke-width="0.4" stroke-miterlimit="10"/>
<path d="M134.27 0.0100098V95.9099" stroke="black" stroke-width="0.4" stroke-miterlimit="10"/>
<path d="M127.88 95.9099V0.0100098" stroke="black" stroke-width="0.4" stroke-miterlimit="10"/>
<path d="M147.06 0.0100098V95.9099" stroke="black" stroke-width="0.4" stroke-miterlimit="10"/>
<path d="M140.66 95.9099V0.0100098" stroke="black" stroke-width="0.4" stroke-miterlimit="10"/>
<path d="M159.85 0.0100098V95.9099" stroke="black" stroke-width="0.4" stroke-miterlimit="10"/>
<path d="M153.45 95.9099V0.0100098" stroke="black" stroke-width="0.4" stroke-miterlimit="10"/>
<path d="M172.63 0.0100098V95.9099" stroke="black" stroke-width="0.4" stroke-miterlimit="10"/>
<path d="M166.24 95.9099V0.0100098" stroke="black" stroke-width="0.4" stroke-miterlimit="10"/>
<path d="M185.42 0.0100098V95.9099" stroke="black" stroke-width="0.4" stroke-miterlimit="10"/>
<path d="M179.03 95.9099V0.0100098" stroke="black" stroke-width="0.4" stroke-miterlimit="10"/>
<path d="M198.21 0.0100098V95.9099" stroke="black" stroke-width="0.4" stroke-miterlimit="10"/>
<path d="M191.82 95.9099V0.0100098" stroke="black" stroke-width="0.4" stroke-miterlimit="10"/>
<path d="M211 0.0100098V95.9099" stroke="black" stroke-width="0.4" stroke-miterlimit="10"/>
<path d="M204.6 95.9099V0.0100098" stroke="black" stroke-width="0.4" stroke-miterlimit="10"/>
<path d="M223.79 0.0100098V95.9099" stroke="black" stroke-width="0.4" stroke-miterlimit="10"/>
<path d="M217.39 95.9099V0.0100098" stroke="black" stroke-width="0.4" stroke-miterlimit="10"/>
<path d="M236.58 0.0100098V95.9099" stroke="black" stroke-width="0.4" stroke-miterlimit="10"/>
<path d="M230.18 95.9099V0.0100098" stroke="black" stroke-width="0.4" stroke-miterlimit="10"/>
<path d="M249.36 0.0100098V95.9099" stroke="black" stroke-width="0.4" stroke-miterlimit="10"/>
<path d="M242.97 95.9099V0.0100098" stroke="black" stroke-width="0.4" stroke-miterlimit="10"/>
<path d="M262.15 0.0100098V95.9099" stroke="black" stroke-width="0.4" stroke-miterlimit="10"/>
<path d="M255.76 95.9099V0.0100098" stroke="black" stroke-width="0.4" stroke-miterlimit="10"/>
<path d="M274.94 0.0100098V95.9099" stroke="black" stroke-width="0.4" stroke-miterlimit="10"/>
<path d="M268.55 95.9099V0.0100098" stroke="black" stroke-width="0.4" stroke-miterlimit="10"/>
<path d="M287.73 0.0100098V95.9099" stroke="black" stroke-width="0.4" stroke-miterlimit="10"/>
<path d="M281.33 95.9099V0.0100098" stroke="black" stroke-width="0.4" stroke-miterlimit="10"/>
<path d="M300.52 0.0100098V95.9099" stroke="black" stroke-width="0.4" stroke-miterlimit="10"/>
<path d="M294.12 95.9099V0.0100098" stroke="black" stroke-width="0.4" stroke-miterlimit="10"/>
<path d="M313.3 0.0100098V95.9099" stroke="black" stroke-width="0.4" stroke-miterlimit="10"/>
<path d="M306.91 95.9099V0.0100098" stroke="black" stroke-width="0.4" stroke-miterlimit="10"/>
<path d="M326.09 0.0100098V95.9099" stroke="black" stroke-width="0.4" stroke-miterlimit="10"/>
<path d="M319.7 95.9099V0.0100098" stroke="black" stroke-width="0.4" stroke-miterlimit="10"/>
<path d="M338.88 0.0100098V95.9099" stroke="black" stroke-width="0.4" stroke-miterlimit="10"/>
<path d="M332.49 95.9099V0.0100098" stroke="black" stroke-width="0.4" stroke-miterlimit="10"/>
<path d="M351.67 0.0100098V95.9099" stroke="black" stroke-width="0.4" stroke-miterlimit="10"/>
<path d="M345.27 95.9099V0.0100098" stroke="black" stroke-width="0.4" stroke-miterlimit="10"/>
<path d="M364.46 0.0100098V95.9099" stroke="black" stroke-width="0.4" stroke-miterlimit="10"/>
<path d="M358.06 95.9099V0.0100098" stroke="black" stroke-width="0.4" stroke-miterlimit="10"/>
<path d="M377.24 0.0100098V95.9099" stroke="black" stroke-width="0.4" stroke-miterlimit="10"/>
<path d="M370.85 95.9099V0.0100098" stroke="black" stroke-width="0.4" stroke-miterlimit="10"/>
<path d="M390.03 0.0100098V95.9099" stroke="black" stroke-width="0.4" stroke-miterlimit="10"/>
<path d="M383.64 95.9099V0.0100098" stroke="black" stroke-width="0.4" stroke-miterlimit="10"/>
<path d="M402.82 0.0100098V95.9099" stroke="black" stroke-width="0.4" stroke-miterlimit="10"/>
<path d="M396.43 95.9099V0.0100098" stroke="black" stroke-width="0.4" stroke-miterlimit="10"/>
<path d="M415.61 0.0100098V95.9099" stroke="black" stroke-width="0.4" stroke-miterlimit="10"/>
<path d="M409.21 95.9099V0.0100098" stroke="black" stroke-width="0.4" stroke-miterlimit="10"/>
<path d="M428.4 0.0100098V95.9099" stroke="black" stroke-width="0.4" stroke-miterlimit="10"/>
<path d="M422 95.9099V0.0100098" stroke="black" stroke-width="0.4" stroke-miterlimit="10"/>
<path d="M441.18 0.0100098V95.9099" stroke="black" stroke-width="0.4" stroke-miterlimit="10"/>
<path d="M434.79 95.9099V0.0100098" stroke="black" stroke-width="0.4" stroke-miterlimit="10"/>
<path d="M453.97 0.0100098V95.9099" stroke="black" stroke-width="0.4" stroke-miterlimit="10"/>
<path d="M447.58 95.9099V0.0100098" stroke="black" stroke-width="0.4" stroke-miterlimit="10"/>
<path d="M466.76 0.0100098V95.9099" stroke="black" stroke-width="0.4" stroke-miterlimit="10"/>
<path d="M460.37 95.9099V0.0100098" stroke="black" stroke-width="0.4" stroke-miterlimit="10"/>
<path d="M479.55 0.0100098V95.9099" stroke="black" stroke-width="0.4" stroke-miterlimit="10"/>
<path d="M473.15 95.9099V0.0100098" stroke="black" stroke-width="0.4" stroke-miterlimit="10"/>
<path d="M492.34 0.0100098V95.9099" stroke="black" stroke-width="0.4" stroke-miterlimit="10"/>
<path d="M485.94 95.9099V0.0100098" stroke="black" stroke-width="0.4" stroke-miterlimit="10"/>
<path d="M505.12 0.0100098V95.9099" stroke="black" stroke-width="0.4" stroke-miterlimit="10"/>
<path d="M498.73 95.9099V0.0100098" stroke="black" stroke-width="0.4" stroke-miterlimit="10"/>
<path d="M517.91 0.0100098V95.9099" stroke="black" stroke-width="0.4" stroke-miterlimit="10"/>
<path d="M511.52 95.9099V0.0100098" stroke="black" stroke-width="0.4" stroke-miterlimit="10"/>
<path d="M530.7 0.0100098V95.9099" stroke="black" stroke-width="0.4" stroke-miterlimit="10"/>
<path d="M524.31 95.9099V0.0100098" stroke="black" stroke-width="0.4" stroke-miterlimit="10"/>
<path d="M543.49 0.0100098V95.9099" stroke="black" stroke-width="0.4" stroke-miterlimit="10"/>
<path d="M537.09 95.9099V0.0100098" stroke="black" stroke-width="0.4" stroke-miterlimit="10"/>
<path d="M556.28 0.0100098V95.9099" stroke="black" stroke-width="0.4" stroke-miterlimit="10"/>
<path d="M549.88 95.9099V0.0100098" stroke="black" stroke-width="0.4" stroke-miterlimit="10"/>
<path d="M569.06 0.0100098V95.9099" stroke="black" stroke-width="0.4" stroke-miterlimit="10"/>
<path d="M562.67 95.9099V0.0100098" stroke="black" stroke-width="0.4" stroke-miterlimit="10"/>
<path d="M581.85 0.0100098V95.9099" stroke="black" stroke-width="0.4" stroke-miterlimit="10"/>
<path d="M575.46 95.9099V0.0100098" stroke="black" stroke-width="0.4" stroke-miterlimit="10"/>
<path d="M594.64 0.0100098V95.9099" stroke="black" stroke-width="0.4" stroke-miterlimit="10"/>
<path d="M588.25 95.9099V0.0100098" stroke="black" stroke-width="0.4" stroke-miterlimit="10"/>
<path d="M607.43 0.0100098V95.9099" stroke="black" stroke-width="0.4" stroke-miterlimit="10"/>
<path d="M601.04 95.9099V0.0100098" stroke="black" stroke-width="0.4" stroke-miterlimit="10"/>
<path d="M620.22 0.0100098V95.9099" stroke="black" stroke-width="0.4" stroke-miterlimit="10"/>
<path d="M613.82 95.9099V0.0100098" stroke="black" stroke-width="0.4" stroke-miterlimit="10"/>
<path d="M633.01 0.0100098V95.9099" stroke="black" stroke-width="0.4" stroke-miterlimit="10"/>
<path d="M626.61 95.9099V0.0100098" stroke="black" stroke-width="0.4" stroke-miterlimit="10"/>
<path d="M645.79 0.0100098V95.9099" stroke="black" stroke-width="0.4" stroke-miterlimit="10"/>
<path d="M639.4 95.9099V0.0100098" stroke="black" stroke-width="0.4" stroke-miterlimit="10"/>
<path d="M658.58 0.0100098V95.9099" stroke="black" stroke-width="0.4" stroke-miterlimit="10"/>
<path d="M652.19 95.9099V0.0100098" stroke="black" stroke-width="0.4" stroke-miterlimit="10"/>
<path d="M671.37 0.0100098V95.9099" stroke="black" stroke-width="0.4" stroke-miterlimit="10"/>
<path d="M664.98 95.9099V0.0100098" stroke="black" stroke-width="0.4" stroke-miterlimit="10"/>
<path d="M684.16 0.0100098V95.9099" stroke="black" stroke-width="0.4" stroke-miterlimit="10"/>
<path d="M677.76 95.9099V0.0100098" stroke="black" stroke-width="0.4" stroke-miterlimit="10"/>
<path d="M696.95 0.0100098V95.9099" stroke="black" stroke-width="0.4" stroke-miterlimit="10"/>
<path d="M690.55 95.9099V0.0100098" stroke="black" stroke-width="0.4" stroke-miterlimit="10"/>
<path d="M709.73 0.0100098V95.9099" stroke="black" stroke-width="0.4" stroke-miterlimit="10"/>
<path d="M703.34 95.9099V0.0100098" stroke="black" stroke-width="0.4" stroke-miterlimit="10"/>
<path d="M722.52 0.0100098V95.9099" stroke="black" stroke-width="0.4" stroke-miterlimit="10"/>
<path d="M716.13 95.9099V0.0100098" stroke="black" stroke-width="0.4" stroke-miterlimit="10"/>
<path d="M735.31 0.0100098V95.9099" stroke="black" stroke-width="0.4" stroke-miterlimit="10"/>
<path d="M728.92 95.9099V0.0100098" stroke="black" stroke-width="0.4" stroke-miterlimit="10"/>
<path d="M748.1 0.0100098V95.9099" stroke="black" stroke-width="0.4" stroke-miterlimit="10"/>
<path d="M741.7 95.9099V0.0100098" stroke="black" stroke-width="0.4" stroke-miterlimit="10"/>
<path d="M760.89 0.0100098V95.9099" stroke="black" stroke-width="0.4" stroke-miterlimit="10"/>
<path d="M754.49 95.9099V0.0100098" stroke="black" stroke-width="0.4" stroke-miterlimit="10"/>
<path d="M773.67 0.0100098V95.9099" stroke="black" stroke-width="0.4" stroke-miterlimit="10"/>
<path d="M767.28 95.9099V0.0100098" stroke="black" stroke-width="0.4" stroke-miterlimit="10"/>
<path d="M786.46 0.0100098V95.9099" stroke="black" stroke-width="0.4" stroke-miterlimit="10"/>
<path d="M780.07 95.9099V0.0100098" stroke="black" stroke-width="0.4" stroke-miterlimit="10"/>
<path d="M799.25 0.0100098V95.9099" stroke="black" stroke-width="0.4" stroke-miterlimit="10"/>
<path d="M792.86 95.9099V0.0100098" stroke="black" stroke-width="0.4" stroke-miterlimit="10"/>
<path d="M812.04 0.0100098V95.9099" stroke="black" stroke-width="0.4" stroke-miterlimit="10"/>
<path d="M805.64 95.9099V0.0100098" stroke="black" stroke-width="0.4" stroke-miterlimit="10"/>
<path d="M824.83 0.0100098V95.9099" stroke="black" stroke-width="0.4" stroke-miterlimit="10"/>
<path d="M818.43 95.9099V0.0100098" stroke="black" stroke-width="0.4" stroke-miterlimit="10"/>
<path d="M837.61 0.0100098V95.9099" stroke="black" stroke-width="0.4" stroke-miterlimit="10"/>
<path d="M831.22 95.9099V0.0100098" stroke="black" stroke-width="0.4" stroke-miterlimit="10"/>
<path d="M850.4 0.0100098V95.9099" stroke="black" stroke-width="0.4" stroke-miterlimit="10"/>
<path d="M844.01 95.9099V0.0100098" stroke="black" stroke-width="0.4" stroke-miterlimit="10"/>
<path d="M863.19 0.0100098V95.9099" stroke="black" stroke-width="0.4" stroke-miterlimit="10"/>
<path d="M856.8 95.9099V0.0100098" stroke="black" stroke-width="0.4" stroke-miterlimit="10"/>
<path d="M875.98 0.0100098V95.9099" stroke="black" stroke-width="0.4" stroke-miterlimit="10"/>
<path d="M869.58 95.9099V0.0100098" stroke="black" stroke-width="0.4" stroke-miterlimit="10"/>
<path d="M888.77 0.0100098V95.9099" stroke="black" stroke-width="0.4" stroke-miterlimit="10"/>
<path d="M882.37 95.9099V0.0100098" stroke="black" stroke-width="0.4" stroke-miterlimit="10"/>
<path d="M901.55 0.0100098V95.9099" stroke="black" stroke-width="0.4" stroke-miterlimit="10"/>
<path d="M895.16 95.9099V0.0100098" stroke="black" stroke-width="0.4" stroke-miterlimit="10"/>
<path d="M914.34 0.0100098V95.9099" stroke="black" stroke-width="0.4" stroke-miterlimit="10"/>
<path d="M907.95 95.9099V0.0100098" stroke="black" stroke-width="0.4" stroke-miterlimit="10"/>
<path d="M927.13 0.0100098V95.9099" stroke="black" stroke-width="0.4" stroke-miterlimit="10"/>
<path d="M920.74 95.9099V0.0100098" stroke="black" stroke-width="0.4" stroke-miterlimit="10"/>
<path d="M939.92 0.0100098V95.9099" stroke="black" stroke-width="0.4" stroke-miterlimit="10"/>
<path d="M933.52 95.9099V0.0100098" stroke="black" stroke-width="0.4" stroke-miterlimit="10"/>
<path d="M952.71 0.0100098V95.9099" stroke="black" stroke-width="0.4" stroke-miterlimit="10"/>
<path d="M946.31 95.9099V0.0100098" stroke="black" stroke-width="0.4" stroke-miterlimit="10"/>
<path d="M965.49 0.0100098V95.9099" stroke="black" stroke-width="0.4" stroke-miterlimit="10"/>
<path d="M959.1 95.9099V0.0100098" stroke="black" stroke-width="0.4" stroke-miterlimit="10"/>
<path d="M978.28 0.0100098V95.9099" stroke="black" stroke-width="0.4" stroke-miterlimit="10"/>
<path d="M971.89 95.9099V0.0100098" stroke="black" stroke-width="0.4" stroke-miterlimit="10"/>
<path d="M991.07 0.0100098V95.9099" stroke="black" stroke-width="0.4" stroke-miterlimit="10"/>
<path d="M984.68 95.9099V0.0100098" stroke="black" stroke-width="0.4" stroke-miterlimit="10"/>
<path d="M1003.86 0.0100098V95.9099" stroke="black" stroke-width="0.4" stroke-miterlimit="10"/>
<path d="M997.47 95.9099V0.0100098" stroke="black" stroke-width="0.4" stroke-miterlimit="10"/>
<path d="M1016.65 0.0100098V95.9099" stroke="black" stroke-width="0.4" stroke-miterlimit="10"/>
<path d="M1010.25 95.9099V0.0100098" stroke="black" stroke-width="0.4" stroke-miterlimit="10"/>
<path d="M1029.44 0.0100098V95.9099" stroke="black" stroke-width="0.4" stroke-miterlimit="10"/>
<path d="M1023.04 95.9099V0.0100098" stroke="black" stroke-width="0.4" stroke-miterlimit="10"/>
<path d="M1042.22 0.0100098V95.9099" stroke="black" stroke-width="0.4" stroke-miterlimit="10"/>
<path d="M1035.83 95.9099V0.0100098" stroke="black" stroke-width="0.4" stroke-miterlimit="10"/>
<path d="M1055.01 0.0100098V95.9099" stroke="black" stroke-width="0.4" stroke-miterlimit="10"/>
<path d="M1048.62 95.9099V0.0100098" stroke="black" stroke-width="0.4" stroke-miterlimit="10"/>
<path d="M1067.8 0.0100098V95.9099" stroke="black" stroke-width="0.4" stroke-miterlimit="10"/>
<path d="M1061.41 95.9099V0.0100098" stroke="black" stroke-width="0.4" stroke-miterlimit="10"/>
<path d="M1080.59 0.0100098V95.9099" stroke="black" stroke-width="0.4" stroke-miterlimit="10"/>
<path d="M1074.19 95.9099V0.0100098" stroke="black" stroke-width="0.4" stroke-miterlimit="10"/>
<path d="M1093.38 0.0100098V95.9099" stroke="black" stroke-width="0.4" stroke-miterlimit="10"/>
<path d="M1086.98 95.9099V0.0100098" stroke="black" stroke-width="0.4" stroke-miterlimit="10"/>
<path d="M1106.16 0.0100098V95.9099" stroke="black" stroke-width="0.4" stroke-miterlimit="10"/>
<path d="M1099.77 95.9099V0.0100098" stroke="black" stroke-width="0.4" stroke-miterlimit="10"/>
<path d="M1118.95 0.0100098V95.9099" stroke="black" stroke-width="0.4" stroke-miterlimit="10"/>
<path d="M1112.56 95.9099V0.0100098" stroke="black" stroke-width="0.4" stroke-miterlimit="10"/>
<path d="M1131.74 0.0100098V95.9099" stroke="black" stroke-width="0.4" stroke-miterlimit="10"/>
<path d="M1125.35 95.9099V0.0100098" stroke="black" stroke-width="0.4" stroke-miterlimit="10"/>
<path d="M1144.53 0.0100098V95.9099" stroke="black" stroke-width="0.4" stroke-miterlimit="10"/>
<path d="M1138.13 95.9099V0.0100098" stroke="black" stroke-width="0.4" stroke-miterlimit="10"/>
<path d="M1157.32 0.0100098V95.9099" stroke="black" stroke-width="0.4" stroke-miterlimit="10"/>
<path d="M1150.92 95.9099V0.0100098" stroke="black" stroke-width="0.4" stroke-miterlimit="10"/>
<path d="M1170.1 0.0100098V95.9099" stroke="black" stroke-width="0.4" stroke-miterlimit="10"/>
<path d="M1163.71 95.9099V0.0100098" stroke="black" stroke-width="0.4" stroke-miterlimit="10"/>
<path d="M1182.89 0.0100098V95.9099" stroke="black" stroke-width="0.4" stroke-miterlimit="10"/>
<path d="M1176.5 95.9099V0.0100098" stroke="black" stroke-width="0.4" stroke-miterlimit="10"/>
<path d="M1195.68 0.0100098V95.9099" stroke="black" stroke-width="0.4" stroke-miterlimit="10"/>
<path d="M1189.29 95.9099V0.0100098" stroke="black" stroke-width="0.4" stroke-miterlimit="10"/>
<path d="M1208.47 0.0100098V95.9099" stroke="black" stroke-width="0.4" stroke-miterlimit="10"/>
<path d="M1202.07 95.9099V0.0100098" stroke="black" stroke-width="0.4" stroke-miterlimit="10"/>
<path d="M1221.26 0.0100098V95.9099" stroke="black" stroke-width="0.4" stroke-miterlimit="10"/>
<path d="M1214.86 95.9099V0.0100098" stroke="black" stroke-width="0.4" stroke-miterlimit="10"/>
<path d="M1234.04 0.0100098V95.9099" stroke="black" stroke-width="0.4" stroke-miterlimit="10"/>
<path d="M1227.65 95.9099V0.0100098" stroke="black" stroke-width="0.4" stroke-miterlimit="10"/>
<path d="M1246.83 0.0100098V95.9099" stroke="black" stroke-width="0.4" stroke-miterlimit="10"/>
<path d="M1240.44 95.9099V0.0100098" stroke="black" stroke-width="0.4" stroke-miterlimit="10"/>
<path d="M1259.62 0.0100098V95.9099" stroke="black" stroke-width="0.4" stroke-miterlimit="10"/>
<path d="M1253.23 95.9099V0.0100098" stroke="black" stroke-width="0.4" stroke-miterlimit="10"/>
<path d="M1272.41 0.0100098V95.9099" stroke="black" stroke-width="0.4" stroke-miterlimit="10"/>
<path d="M1266.01 95.9099V0.0100098" stroke="black" stroke-width="0.4" stroke-miterlimit="10"/>
<path d="M1285.2 0.0100098V95.9099" stroke="black" stroke-width="0.4" stroke-miterlimit="10"/>
<path d="M1278.8 95.9099V0.0100098" stroke="black" stroke-width="0.4" stroke-miterlimit="10"/>
<path d="M1297.98 0.0100098V95.9099" stroke="black" stroke-width="0.4" stroke-miterlimit="10"/>
<path d="M1291.59 95.9099V0.0100098" stroke="black" stroke-width="0.4" stroke-miterlimit="10"/>
<path d="M1310.77 0.0100098V95.9099" stroke="black" stroke-width="0.4" stroke-miterlimit="10"/>
<path d="M1304.38 95.9099V0.0100098" stroke="black" stroke-width="0.4" stroke-miterlimit="10"/>
<path d="M1323.56 0.0100098V95.9099" stroke="black" stroke-width="0.4" stroke-miterlimit="10"/>
<path d="M1317.17 95.9099V0.0100098" stroke="black" stroke-width="0.4" stroke-miterlimit="10"/>
<path d="M1336.35 0.0100098V95.9099" stroke="black" stroke-width="0.4" stroke-miterlimit="10"/>
<path d="M1329.95 95.9099V0.0100098" stroke="black" stroke-width="0.4" stroke-miterlimit="10"/>
<path d="M1349.14 0.0100098V95.9099" stroke="black" stroke-width="0.4" stroke-miterlimit="10"/>
<path d="M1342.74 95.9099V0.0100098" stroke="black" stroke-width="0.4" stroke-miterlimit="10"/>
<path d="M1361.93 0.0100098V95.9099" stroke="black" stroke-width="0.4" stroke-miterlimit="10"/>
<path d="M1355.53 95.9099V0.0100098" stroke="black" stroke-width="0.4" stroke-miterlimit="10"/>
<path d="M1374.71 0.0100098V95.9099" stroke="black" stroke-width="0.4" stroke-miterlimit="10"/>
<path d="M1368.32 95.9099V0.0100098" stroke="black" stroke-width="0.4" stroke-miterlimit="10"/>
<path d="M1387.5 0.0100098V95.9099" stroke="black" stroke-width="0.4" stroke-miterlimit="10"/>
<path d="M1381.11 95.9099V0.0100098" stroke="black" stroke-width="0.4" stroke-miterlimit="10"/>
<path d="M1400.29 0.0100098V95.9099" stroke="black" stroke-width="0.4" stroke-miterlimit="10"/>
<path d="M1393.9 95.9099V0.0100098" stroke="black" stroke-width="0.4" stroke-miterlimit="10"/>
<path d="M1413.08 0.0100098V95.9099" stroke="black" stroke-width="0.4" stroke-miterlimit="10"/>
<path d="M1406.68 95.9099V0.0100098" stroke="black" stroke-width="0.4" stroke-miterlimit="10"/>
<path d="M1425.87 0.0100098V95.9099" stroke="black" stroke-width="0.4" stroke-miterlimit="10"/>
<path d="M1419.47 95.9099V0.0100098" stroke="black" stroke-width="0.4" stroke-miterlimit="10"/>
<path d="M1438.65 0.0100098V95.9099" stroke="black" stroke-width="0.4" stroke-miterlimit="10"/>
<path d="M1432.26 95.9099V0.0100098" stroke="black" stroke-width="0.4" stroke-miterlimit="10"/>
<path d="M1451.44 0.0100098V95.9099" stroke="black" stroke-width="0.4" stroke-miterlimit="10"/>
<path d="M1445.05 95.9099V0.0100098" stroke="black" stroke-width="0.4" stroke-miterlimit="10"/>
<path d="M1464.23 0.0100098V95.9099" stroke="black" stroke-width="0.4" stroke-miterlimit="10"/>
<path d="M1457.84 95.9099V0.0100098" stroke="black" stroke-width="0.4" stroke-miterlimit="10"/>
<path d="M1477.02 0.0100098V95.9099" stroke="black" stroke-width="0.4" stroke-miterlimit="10"/>
<path d="M1470.62 95.9099V0.0100098" stroke="black" stroke-width="0.4" stroke-miterlimit="10"/>
<path d="M1489.81 0.0100098V95.9099" stroke="black" stroke-width="0.4" stroke-miterlimit="10"/>
<path d="M1483.41 95.9099V0.0100098" stroke="black" stroke-width="0.4" stroke-miterlimit="10"/>
<path d="M1502.59 0.0100098V95.9099" stroke="black" stroke-width="0.4" stroke-miterlimit="10"/>
<path d="M1496.2 95.9099V0.0100098" stroke="black" stroke-width="0.4" stroke-miterlimit="10"/>
<path d="M1515.38 0.0100098V95.9099" stroke="black" stroke-width="0.4" stroke-miterlimit="10"/>
<path d="M1508.99 95.9099V0.0100098" stroke="black" stroke-width="0.4" stroke-miterlimit="10"/>
<path d="M1528.17 0.0100098V95.9099" stroke="black" stroke-width="0.4" stroke-miterlimit="10"/>
<path d="M1534.56 0V95.8999" stroke="black" stroke-width="0.4" stroke-miterlimit="10"/>
<path d="M1521.78 95.9099V0.0100098" stroke="black" stroke-width="0.4" stroke-miterlimit="10"/>
<path d="M1534.56 6.3999H0.0600586" stroke="black" stroke-width="0.4" stroke-miterlimit="10"/>
<path d="M0.0600586 0H1534.56" stroke="black" stroke-width="0.4" stroke-miterlimit="10"/>
<path d="M1534.56 19.1799H0.0600586" stroke="black" stroke-width="0.4" stroke-miterlimit="10"/>
<path d="M0.0600586 12.7899H1534.56" stroke="black" stroke-width="0.4" stroke-miterlimit="10"/>
<path d="M1534.56 31.97H0.0600586" stroke="black" stroke-width="0.4" stroke-miterlimit="10"/>
<path d="M0.0600586 25.58H1534.56" stroke="black" stroke-width="0.4" stroke-miterlimit="10"/>
<path d="M1534.56 44.76H0.0600586" stroke="black" stroke-width="0.4" stroke-miterlimit="10"/>
<path d="M0.0600586 38.37H1534.56" stroke="black" stroke-width="0.4" stroke-miterlimit="10"/>
<path d="M1534.56 57.5499H0.0600586" stroke="black" stroke-width="0.4" stroke-miterlimit="10"/>
<path d="M0.0600586 51.1499H1534.56" stroke="black" stroke-width="0.4" stroke-miterlimit="10"/>
<path d="M0.0600586 63.9399H1534.55" stroke="black" stroke-width="0.4" stroke-miterlimit="10"/>
<path opacity="0.1" d="M1081.99 65.5399V44.73L1045.84 8.57996V1.59998H947.02L938.91 9.70996H932.45L929.78 7.03992H604.78L602.11 9.70996H595.65L587.54 1.59998H488.72V8.57996L452.57 44.73V65.5399H1081.99Z" fill="#009DFF"/>
<path opacity="0.6" d="M480.94 3.91992L454.77 30.09" stroke="#009DFF" stroke-width="0.4" stroke-miterlimit="10"/>
<path d="M475.8 9.04993L461.42 23.4399" stroke="#009DFF" stroke-width="1.6" stroke-miterlimit="10"/>
<path d="M483.84 1.01001H481.55V3.29993H483.84V1.01001Z" fill="#009DFF"/>
<path d="M498.98 64.1399H496.58V66.5399H498.98V64.1399Z" fill="#009DFF"/>
<path d="M453.9 30.96H451.61V33.25H453.9V30.96Z" fill="#009DFF"/>
<path opacity="0.6" d="M1053.62 3.91992L1079.79 30.09" stroke="#009DFF" stroke-width="0.4" stroke-miterlimit="10"/>
<path d="M1058.76 9.04993L1073.14 23.4399" stroke="#009DFF" stroke-width="1.6" stroke-miterlimit="10"/>
<path d="M1050.72 3.30994L1053.01 3.30994V1.02002L1050.72 1.02002V3.30994Z" fill="#009DFF"/>
<path d="M1035.58 66.54H1037.98V64.14H1035.58V66.54Z" fill="#009DFF"/>
<path d="M1080.67 33.25H1082.96V30.96H1080.67V33.25Z" fill="#009DFF"/>
<path opacity="0.6" d="M1036.75 65.34H1081.99V44.5299L1045.84 8.38V1.3999H947.02L938.91 9.5199H932.45L929.78 6.83997H604.78L602.11 9.5199H595.65L587.54 1.3999H488.72V8.38L452.57 44.5299V65.34H497.81" stroke="#009DFF" stroke-width="0.4" stroke-miterlimit="10"/>
<path d="M943.9 1.3999H590.66" stroke="#009DFF" stroke-width="0.4" stroke-miterlimit="10"/>
<path d="M589.48 3.30994L593.58 7.40991" stroke="#009DFF" stroke-width="1.2" stroke-miterlimit="10"/>
<path d="M945.08 3.30994L940.97 7.40991" stroke="#009DFF" stroke-width="1.2" stroke-miterlimit="10"/>
<path d="M682.32 6.85999H852.24" stroke="#009DFF" stroke-width="1.2" stroke-miterlimit="10"/>
<path d="M615.89 65.22H620.77" stroke="#009DFF" stroke-width="1.1" stroke-miterlimit="10"/>
<path d="M641.14 65.22H646.01" stroke="#009DFF" stroke-width="1.1" stroke-miterlimit="10"/>
<path d="M666.39 65.22H671.26" stroke="#009DFF" stroke-width="1.1" stroke-miterlimit="10"/>
<path d="M691.64 65.22H696.51" stroke="#009DFF" stroke-width="1.1" stroke-miterlimit="10"/>
<path d="M812.8 65.22H817.67" stroke="#009DFF" stroke-width="1.1" stroke-miterlimit="10"/>
<path d="M838.05 65.22H842.92" stroke="#009DFF" stroke-width="1.1" stroke-miterlimit="10"/>
<path d="M863.3 65.22H868.17" stroke="#009DFF" stroke-width="1.1" stroke-miterlimit="10"/>
<path d="M888.55 65.22H893.42" stroke="#009DFF" stroke-width="1.1" stroke-miterlimit="10"/>
<path d="M913.79 65.22H918.67" stroke="#009DFF" stroke-width="1.1" stroke-miterlimit="10"/>
<path d="M615.89 65.22H918.67" stroke="#009DFF" stroke-width="0.28" stroke-miterlimit="10"/>
<path opacity="0.3" d="M602.11 9.70996L604.78 7.03992H929.78L932.45 9.70996H938.91L947.02 1.59998H587.54L595.65 9.70996H602.11Z" fill="#009DFF"/>
<path opacity="0.2" d="M1045.84 1.59998V8.57996L1081.99 44.73V65.5399H1534.56V1.59998H1045.84Z" fill="#009DFF"/>
<path opacity="0.2" d="M488.72 8.57996V1.59998H0V65.5399H452.57V44.73L488.72 8.57996Z" fill="#009DFF"/>
<path opacity="0.5" d="M457.36 61.21V47.1899L493.51 11.0399V6.85999H585.55L593.66 14.98H604.1L606.77 12.3099H927.79L930.46 14.98H940.9L949.01 6.85999H1041.05V11.0399L1077.2 47.1899V61.21H457.36Z" fill="url(#paint0_linear_102_2)"/>
<path opacity="0.2" d="M1399.52 5.42993H1504.8L1508.16 2.07996L1527.54 2.05994L1534.56 9.08997V66.0199H1363.2L1360.57 63.3899L1226.1 63.0399L1223.33 65.8199H1093.98V37.7899L1061.36 5.16992V2.10999H1081.96L1083.29 3.42993H1192.44L1193.78 2.08997L1396.1 2.07996L1399.52 5.42993Z" fill="url(#paint1_linear_102_2)"/>
<path opacity="0.2" d="M135.04 5.42993H29.76L26.4 2.07996L7.02 2.05994L0 9.08997V66.0199H171.36L173.99 63.3899L308.46 63.0399L311.23 65.8199H440.58V37.7899L473.2 5.16992V2.10999H452.6L451.27 3.42993H342.13L340.78 2.08997L138.46 2.07996L135.04 5.42993Z" fill="url(#paint2_linear_102_2)"/>
<path d="M1227.86 0H1224.66V3.19995H1227.86V0Z" fill="#009DFF"/>
<path opacity="0.5" d="M1233.89 0.929932H1227.86V2.26001H1233.89V0.929932Z" fill="#009DFF"/>
<path opacity="0.2" d="M1259.31 1.32996H1233.89V1.85999H1259.31V1.32996Z" fill="#009DFF"/>
<path opacity="0.3" d="M1471.53 4.95996H1504.8L1508.16 1.59998L1527.54 1.58997L1534.56 8.60999V65.5399H1409.19" stroke="#009DFF" stroke-width="0.8" stroke-miterlimit="10"/>
<path opacity="0.3" d="M1285.75 1.60999L1396.1 1.59998L1399.52 4.95996H1440.46" stroke="#009DFF" stroke-width="0.8" stroke-miterlimit="10"/>
<path opacity="0.3" d="M1125.31 65.34H1093.98V37.3199L1061.36 4.69995V1.63H1081.96L1083.29 2.95996H1192.44L1193.78 1.60999H1201.07" stroke="#009DFF" stroke-width="0.8" stroke-miterlimit="10"/>
<path opacity="0.3" d="M1379.89 65.5399H1363.2L1360.57 62.9099L1226.1 62.5599L1223.33 65.34H1201.07" stroke="#009DFF" stroke-width="0.8" stroke-miterlimit="10"/>
<path d="M1132.49 67.25C1133.55 67.25 1134.41 66.3903 1134.41 65.33C1134.41 64.2696 1133.55 63.4099 1132.49 63.4099C1131.43 63.4099 1130.57 64.2696 1130.57 65.33C1130.57 66.3903 1131.43 67.25 1132.49 67.25Z" fill="#009DFF"/>
<path d="M1208.29 63.4099C1209 63.4099 1209.57 62.8369 1209.57 62.13C1209.57 61.4231 1209 60.85 1208.29 60.85C1207.58 60.85 1207.01 61.4231 1207.01 62.13C1207.01 62.8369 1207.58 63.4099 1208.29 63.4099Z" fill="#009DFF"/>
<path d="M1132.49 65.33H1171.46" stroke="#009DFF" stroke-width="1.28" stroke-miterlimit="10"/>
<path opacity="0.6" d="M1157.01 65.33H1195.98L1199.17 62.13H1208.21" stroke="#009DFF" stroke-width="0.32" stroke-miterlimit="10"/>
<path d="M1214.64 1.59998C1214.64 0.71632 1213.92 0 1213.04 0C1212.16 0 1211.44 0.71632 1211.44 1.59998C1211.44 2.48363 1212.16 3.19995 1213.04 3.19995C1213.92 3.19995 1214.64 2.48363 1214.64 1.59998Z" fill="#009DFF"/>
<path opacity="0.5" d="M1220.35 0.929932H1214.32V2.26001H1220.35V0.929932Z" fill="#009DFF"/>
<path opacity="0.2" d="M1245.76 1.32996H1220.34V1.85999H1245.76V1.32996Z" fill="#009DFF"/>
<path d="M1256.4 0H1253.2V3.19995H1256.4V0Z" fill="#009DFF"/>
<path opacity="0.5" d="M1262.43 0.929932H1256.4V2.26001H1262.43V0.929932Z" fill="#009DFF"/>
<path opacity="0.2" d="M1287.85 1.32996H1262.43V1.85999H1287.85V1.32996Z" fill="#009DFF"/>
<path d="M1243.18 1.59998C1243.18 0.71632 1242.46 0 1241.58 0C1240.7 0 1239.98 0.71632 1239.98 1.59998C1239.98 2.48363 1240.7 3.19995 1241.58 3.19995C1242.46 3.19995 1243.18 2.48363 1243.18 1.59998Z" fill="#009DFF"/>
<path opacity="0.5" d="M1248.88 0.929932H1242.85V2.26001H1248.88V0.929932Z" fill="#009DFF"/>
<path opacity="0.2" d="M1274.3 1.32996H1248.88V1.85999H1274.3V1.32996Z" fill="#009DFF"/>
<path d="M1430.14 3.28992C1433.96 3.14992 1437.78 3.07001 1441.6 3.01001H1441.73L1441.82 3.10999L1443.47 4.95996L1443.22 4.84998L1455.88 4.77991C1460.1 4.77991 1464.32 4.78 1468.53 4.88L1468.33 4.96997L1470.25 3.09998L1470.33 3.02991H1470.43C1473.57 3.02991 1476.71 3.15991 1479.84 3.27991C1476.71 3.38991 1473.57 3.47991 1470.43 3.52991L1470.61 3.44995L1468.74 5.38L1468.66 5.46997H1468.53C1464.32 5.54997 1460.1 5.52995 1455.88 5.56995L1443.22 5.5H1443.07L1442.98 5.38989L1441.39 3.47998L1441.6 3.57996C1437.78 3.51996 1433.96 3.43992 1430.14 3.28992Z" fill="#009DFF"/>
<path opacity="0.3" d="M1382.28 64.0299H1379.59V67.0499H1382.28V64.0299Z" fill="#009DFF"/>
<path opacity="0.8" d="M1386.77 64.0299H1384.08V67.0499H1386.77V64.0299Z" fill="#009DFF"/>
<path opacity="0.3" d="M1391.25 64.0299H1388.56V67.0499H1391.25V64.0299Z" fill="#009DFF"/>
<path opacity="0.8" d="M1395.74 64.0299H1393.05V67.0499H1395.74V64.0299Z" fill="#009DFF"/>
<path opacity="0.3" d="M1400.22 64.0299H1397.53V67.0499H1400.22V64.0299Z" fill="#009DFF"/>
<path opacity="0.8" d="M1404.71 64.0299H1402.02V67.0499H1404.71V64.0299Z" fill="#009DFF"/>
<path opacity="0.3" d="M1409.19 64.0299H1406.5V67.0499H1409.19V64.0299Z" fill="#009DFF"/>
<path d="M306.7 3.19995L309.9 3.19995V0L306.7 0V3.19995Z" fill="#009DFF"/>
<path opacity="0.5" d="M300.67 2.27002L306.7 2.27002V0.939941L300.67 0.939941V2.27002Z" fill="#009DFF"/>
<path opacity="0.2" d="M275.25 1.87L300.67 1.87V1.33997L275.25 1.33997V1.87Z" fill="#009DFF"/>
<path opacity="0.3" d="M63.03 4.95996H29.76L26.4 1.59998L7.02 1.58997L0 8.60999V65.5399H125.38" stroke="#009DFF" stroke-width="0.8" stroke-miterlimit="10"/>
<path opacity="0.3" d="M248.81 1.60999L138.46 1.59998L135.04 4.95996H94.1" stroke="#009DFF" stroke-width="0.8" stroke-miterlimit="10"/>
<path opacity="0.3" d="M409.25 65.34H440.58V37.3199L473.2 4.69995V1.63H452.6L451.27 2.95996H342.13L340.78 1.60999H333.48" stroke="#009DFF" stroke-width="0.8" stroke-miterlimit="10"/>
<path opacity="0.3" d="M154.67 65.5399H171.36L173.99 62.9099L308.46 62.5599L311.23 65.34H333.48" stroke="#009DFF" stroke-width="0.8" stroke-miterlimit="10"/>
<path d="M402.07 67.25C403.13 67.25 403.99 66.3903 403.99 65.33C403.99 64.2696 403.13 63.4099 402.07 63.4099C401.01 63.4099 400.15 64.2696 400.15 65.33C400.15 66.3903 401.01 67.25 402.07 67.25Z" fill="#009DFF"/>
<path d="M326.27 63.4099C326.977 63.4099 327.55 62.8369 327.55 62.13C327.55 61.4231 326.977 60.85 326.27 60.85C325.563 60.85 324.99 61.4231 324.99 62.13C324.99 62.8369 325.563 63.4099 326.27 63.4099Z" fill="#009DFF"/>
<path d="M402.07 65.33H363.1" stroke="#009DFF" stroke-width="1.28" stroke-miterlimit="10"/>
<path opacity="0.6" d="M377.55 65.33H338.58L335.39 62.13H326.35" stroke="#009DFF" stroke-width="0.32" stroke-miterlimit="10"/>
<path d="M319.92 1.59998C319.92 2.48363 320.636 3.19995 321.52 3.19995C322.404 3.19995 323.12 2.48363 323.12 1.59998C323.12 0.71632 322.404 0 321.52 0C320.636 0 319.92 0.71632 319.92 1.59998Z" fill="#009DFF"/>
<path opacity="0.5" d="M314.21 2.27002L320.24 2.27002V0.939941L314.21 0.939941V2.27002Z" fill="#009DFF"/>
<path opacity="0.2" d="M288.79 1.87L314.21 1.87V1.33997L288.79 1.33997V1.87Z" fill="#009DFF"/>
<path d="M278.16 3.19995L281.36 3.19995V0L278.16 0V3.19995Z" fill="#009DFF"/>
<path opacity="0.5" d="M272.13 2.27002L278.16 2.27002V0.939941L272.13 0.939941V2.27002Z" fill="#009DFF"/>
<path opacity="0.2" d="M246.71 1.87L272.13 1.87V1.33997L246.71 1.33997V1.87Z" fill="#009DFF"/>
<path d="M291.38 1.59998C291.38 2.48363 292.096 3.19995 292.98 3.19995C293.864 3.19995 294.58 2.48363 294.58 1.59998C294.58 0.71632 293.864 0 292.98 0C292.096 0 291.38 0.71632 291.38 1.59998Z" fill="#009DFF"/>
<path opacity="0.5" d="M285.68 2.27002L291.71 2.27002V0.939941L285.68 0.939941V2.27002Z" fill="#009DFF"/>
<path opacity="0.2" d="M260.26 1.87L285.68 1.87V1.33997L260.26 1.33997V1.87Z" fill="#009DFF"/>
<path d="M104.43 3.28992C100.61 3.43992 96.79 3.51996 92.96 3.57996L93.18 3.47998L91.59 5.38989L91.5 5.5H91.34L78.69 5.56995C74.47 5.56995 70.25 5.56997 66.03 5.46997H65.91L65.82 5.38L63.96 3.44995L64.14 3.52991C61 3.52991 57.86 3.38991 54.72 3.27991C57.86 3.15991 61 3.06991 64.14 3.02991H64.24L64.31 3.09998L66.24 4.96997L66.03 4.88C70.25 4.8 74.47 4.81991 78.69 4.77991L91.34 4.84998L91.1 4.95996L92.75 3.10999L92.84 3.01001H92.96C96.79 3.07001 100.61 3.14992 104.43 3.28992Z" fill="#009DFF"/>
<path opacity="0.3" d="M152.28 67.05H154.97V64.03H152.28V67.05Z" fill="#009DFF"/>
<path opacity="0.8" d="M147.79 67.05H150.48V64.03H147.79V67.05Z" fill="#009DFF"/>
<path opacity="0.3" d="M143.3 67.05H145.99V64.03H143.3V67.05Z" fill="#009DFF"/>
<path opacity="0.8" d="M138.82 67.05H141.51V64.03H138.82V67.05Z" fill="#009DFF"/>
<path opacity="0.3" d="M134.34 67.05H137.03V64.03H134.34V67.05Z" fill="#009DFF"/>
<path opacity="0.8" d="M129.86 67.05H132.55V64.03H129.86V67.05Z" fill="#009DFF"/>
<path opacity="0.3" d="M125.37 67.05H128.06V64.03H125.37V67.05Z" fill="#009DFF"/>
</g>
<defs>
<linearGradient id="paint0_linear_102_2" x1="767.28" y1="61.21" x2="767.28" y2="6.85999" gradientUnits="userSpaceOnUse">
<stop stop-color="#009DFF"/>
<stop offset="1" stop-color="#009DFF" stop-opacity="0"/>
</linearGradient>
<linearGradient id="paint1_linear_102_2" x1="1061.36" y1="34.0399" x2="1534.56" y2="34.0399" gradientUnits="userSpaceOnUse">
<stop stop-color="#009DFF"/>
<stop offset="1" stop-color="#009DFF" stop-opacity="0"/>
</linearGradient>
<linearGradient id="paint2_linear_102_2" x1="473.2" y1="34.0399" x2="0" y2="34.0399" gradientUnits="userSpaceOnUse">
<stop stop-color="#009DFF"/>
<stop offset="1" stop-color="#009DFF" stop-opacity="0"/>
</linearGradient>
</defs>
</svg>
